<mxfile host="app.diagrams.net" modified="2024-05-08T08:23:30.462Z" agent="Mozilla/5.0 (Macintosh; Intel Mac OS X 10_15_7) AppleWebKit/537.36 (KHTML, like Gecko) Chrome/124.0.0.0 Safari/537.36" etag="V07ciZQk6zQ4hwVH07Lr" version="24.3.1" type="github">
  <diagram name="第 1 页" id="qkEo3PlIYUVJd1HWOqHY">
    <mxGraphModel dx="954" dy="606" grid="0" gridSize="10" guides="1" tooltips="1" connect="1" arrows="1" fold="1" page="1" pageScale="1" pageWidth="827" pageHeight="1169" math="0" shadow="0">
      <root>
        <mxCell id="0" />
        <mxCell id="1" parent="0" />
        <mxCell id="TvnW7CxjGbQYXzCXLSWN-12" style="edgeStyle=orthogonalEdgeStyle;rounded=0;orthogonalLoop=1;jettySize=auto;html=1;exitX=1;exitY=0.25;exitDx=0;exitDy=0;entryX=0;entryY=0.5;entryDx=0;entryDy=0;" edge="1" parent="1" source="TvnW7CxjGbQYXzCXLSWN-7" target="TvnW7CxjGbQYXzCXLSWN-8">
          <mxGeometry relative="1" as="geometry" />
        </mxCell>
        <mxCell id="TvnW7CxjGbQYXzCXLSWN-16" value="IP直连" style="edgeLabel;html=1;align=center;verticalAlign=middle;resizable=0;points=[];" vertex="1" connectable="0" parent="TvnW7CxjGbQYXzCXLSWN-12">
          <mxGeometry x="-0.0683" y="1" relative="1" as="geometry">
            <mxPoint y="1" as="offset" />
          </mxGeometry>
        </mxCell>
        <mxCell id="TvnW7CxjGbQYXzCXLSWN-14" style="edgeStyle=orthogonalEdgeStyle;rounded=0;orthogonalLoop=1;jettySize=auto;html=1;exitX=1;exitY=0.75;exitDx=0;exitDy=0;entryX=0;entryY=0.5;entryDx=0;entryDy=0;" edge="1" parent="1" source="TvnW7CxjGbQYXzCXLSWN-7" target="TvnW7CxjGbQYXzCXLSWN-33">
          <mxGeometry relative="1" as="geometry">
            <mxPoint x="274" y="574" as="targetPoint" />
          </mxGeometry>
        </mxCell>
        <mxCell id="TvnW7CxjGbQYXzCXLSWN-17" value="IP直连" style="edgeLabel;html=1;align=center;verticalAlign=middle;resizable=0;points=[];" vertex="1" connectable="0" parent="TvnW7CxjGbQYXzCXLSWN-14">
          <mxGeometry x="0.004" relative="1" as="geometry">
            <mxPoint y="1" as="offset" />
          </mxGeometry>
        </mxCell>
        <mxCell id="TvnW7CxjGbQYXzCXLSWN-7" value="应用" style="rounded=1;whiteSpace=wrap;html=1;" vertex="1" parent="1">
          <mxGeometry x="117" y="383" width="84" height="258" as="geometry" />
        </mxCell>
        <mxCell id="TvnW7CxjGbQYXzCXLSWN-13" style="edgeStyle=orthogonalEdgeStyle;rounded=0;orthogonalLoop=1;jettySize=auto;html=1;exitX=1;exitY=0.5;exitDx=0;exitDy=0;entryX=0;entryY=0.5;entryDx=0;entryDy=0;" edge="1" parent="1" source="TvnW7CxjGbQYXzCXLSWN-8" target="TvnW7CxjGbQYXzCXLSWN-9">
          <mxGeometry relative="1" as="geometry" />
        </mxCell>
        <mxCell id="TvnW7CxjGbQYXzCXLSWN-8" value="&amp;nbsp;F5" style="ellipse;whiteSpace=wrap;html=1;" vertex="1" parent="1">
          <mxGeometry x="283" y="407" width="89" height="80" as="geometry" />
        </mxCell>
        <mxCell id="TvnW7CxjGbQYXzCXLSWN-32" value="" style="edgeStyle=orthogonalEdgeStyle;rounded=0;orthogonalLoop=1;jettySize=auto;html=1;" edge="1" parent="1" source="TvnW7CxjGbQYXzCXLSWN-9" target="TvnW7CxjGbQYXzCXLSWN-31">
          <mxGeometry relative="1" as="geometry" />
        </mxCell>
        <mxCell id="TvnW7CxjGbQYXzCXLSWN-9" value="配置中心HA&lt;br&gt;（非信创paas）" style="rounded=1;whiteSpace=wrap;html=1;" vertex="1" parent="1">
          <mxGeometry x="429" y="417" width="120" height="60" as="geometry" />
        </mxCell>
        <mxCell id="TvnW7CxjGbQYXzCXLSWN-15" style="edgeStyle=orthogonalEdgeStyle;rounded=0;orthogonalLoop=1;jettySize=auto;html=1;exitX=1;exitY=0.5;exitDx=0;exitDy=0;entryX=0;entryY=0.5;entryDx=0;entryDy=0;" edge="1" parent="1" source="TvnW7CxjGbQYXzCXLSWN-33" target="TvnW7CxjGbQYXzCXLSWN-11">
          <mxGeometry relative="1" as="geometry">
            <mxPoint x="445" y="577" as="sourcePoint" />
          </mxGeometry>
        </mxCell>
        <mxCell id="TvnW7CxjGbQYXzCXLSWN-11" value="配置中心consul集群&lt;div&gt;（非信创虚机）&lt;/div&gt;" style="rounded=1;whiteSpace=wrap;html=1;" vertex="1" parent="1">
          <mxGeometry x="429" y="547" width="120" height="60" as="geometry" />
        </mxCell>
        <mxCell id="TvnW7CxjGbQYXzCXLSWN-18" style="edgeStyle=orthogonalEdgeStyle;rounded=0;orthogonalLoop=1;jettySize=auto;html=1;exitX=1;exitY=0.25;exitDx=0;exitDy=0;" edge="1" parent="1" source="TvnW7CxjGbQYXzCXLSWN-22" target="TvnW7CxjGbQYXzCXLSWN-25">
          <mxGeometry relative="1" as="geometry">
            <mxPoint x="325" y="751" as="targetPoint" />
          </mxGeometry>
        </mxCell>
        <mxCell id="TvnW7CxjGbQYXzCXLSWN-19" value="GTM域名" style="edgeLabel;html=1;align=center;verticalAlign=middle;resizable=0;points=[];" vertex="1" connectable="0" parent="TvnW7CxjGbQYXzCXLSWN-18">
          <mxGeometry x="-0.0683" y="1" relative="1" as="geometry">
            <mxPoint y="1" as="offset" />
          </mxGeometry>
        </mxCell>
        <mxCell id="TvnW7CxjGbQYXzCXLSWN-20" style="edgeStyle=orthogonalEdgeStyle;rounded=0;orthogonalLoop=1;jettySize=auto;html=1;exitX=1;exitY=0.75;exitDx=0;exitDy=0;entryX=0;entryY=0.5;entryDx=0;entryDy=0;" edge="1" parent="1" source="TvnW7CxjGbQYXzCXLSWN-22" target="TvnW7CxjGbQYXzCXLSWN-28">
          <mxGeometry relative="1" as="geometry">
            <mxPoint x="325" y="881" as="targetPoint" />
          </mxGeometry>
        </mxCell>
        <mxCell id="TvnW7CxjGbQYXzCXLSWN-21" value="GTM域名" style="edgeLabel;html=1;align=center;verticalAlign=middle;resizable=0;points=[];" vertex="1" connectable="0" parent="TvnW7CxjGbQYXzCXLSWN-20">
          <mxGeometry x="0.004" relative="1" as="geometry">
            <mxPoint y="1" as="offset" />
          </mxGeometry>
        </mxCell>
        <mxCell id="TvnW7CxjGbQYXzCXLSWN-22" value="应用" style="rounded=1;whiteSpace=wrap;html=1;" vertex="1" parent="1">
          <mxGeometry x="117" y="687" width="84" height="258" as="geometry" />
        </mxCell>
        <mxCell id="TvnW7CxjGbQYXzCXLSWN-30" value="" style="edgeStyle=orthogonalEdgeStyle;rounded=0;orthogonalLoop=1;jettySize=auto;html=1;" edge="1" parent="1" source="TvnW7CxjGbQYXzCXLSWN-25" target="TvnW7CxjGbQYXzCXLSWN-29">
          <mxGeometry relative="1" as="geometry" />
        </mxCell>
        <mxCell id="TvnW7CxjGbQYXzCXLSWN-25" value="配置中心Gateway&lt;div&gt;（信创K8S）&lt;/div&gt;" style="rounded=1;whiteSpace=wrap;html=1;" vertex="1" parent="1">
          <mxGeometry x="325" y="722" width="120" height="60" as="geometry" />
        </mxCell>
        <mxCell id="TvnW7CxjGbQYXzCXLSWN-28" value="配置中心consul集群&lt;div&gt;（信创虚机）&lt;/div&gt;" style="rounded=1;whiteSpace=wrap;html=1;" vertex="1" parent="1">
          <mxGeometry x="325" y="850" width="120" height="60" as="geometry" />
        </mxCell>
        <mxCell id="TvnW7CxjGbQYXzCXLSWN-29" value="配置中心API&lt;div&gt;（信创K8S）&lt;/div&gt;" style="whiteSpace=wrap;html=1;rounded=1;" vertex="1" parent="1">
          <mxGeometry x="525" y="722" width="120" height="60" as="geometry" />
        </mxCell>
        <mxCell id="TvnW7CxjGbQYXzCXLSWN-31" value="配置中心API&lt;div&gt;（信创paas-cattle）&lt;/div&gt;" style="whiteSpace=wrap;html=1;rounded=1;" vertex="1" parent="1">
          <mxGeometry x="601" y="417" width="120" height="60" as="geometry" />
        </mxCell>
        <mxCell id="TvnW7CxjGbQYXzCXLSWN-33" value="&amp;nbsp;F5" style="ellipse;whiteSpace=wrap;html=1;" vertex="1" parent="1">
          <mxGeometry x="283" y="537" width="89" height="80" as="geometry" />
        </mxCell>
      </root>
    </mxGraphModel>
  </diagram>
</mxfile>
